<svg width="18" height="26" viewBox="0 0 18 26" fill="none" xmlns="http://www.w3.org/2000/svg">
<path d="M11.9651 4.19922C14.0875 4.19922 15.8076 6.72205 15.8076 10.254C15.8076 17.3179 10.5679 21.3546 8.8213 22.8682C7.07469 21.3546 1.83496 17.3179 1.83496 10.254C1.83496 6.72205 3.58154 4.19922 5.67742 4.19922C6.97688 4.19922 8.12263 5.20835 8.8213 6.21748C9.51986 5.20835 10.6656 4.19922 11.9651 4.19922ZM9.4738 19.9457C10.0892 19.3847 10.6447 18.8266 11.1645 18.2292C13.2471 15.8376 14.4103 13.2239 14.4103 10.254C14.4103 7.87247 13.3365 6.21748 11.9651 6.21748C11.2133 6.21748 10.4001 6.79269 9.80909 7.6444L8.8213 9.07132L7.8334 7.6444C7.24236 6.79269 6.42915 6.21748 5.67742 6.21748C4.32208 6.21748 3.23223 7.88861 3.23223 10.254C3.23223 13.2249 4.39614 15.8376 6.47736 18.2292C6.99784 18.8266 7.55325 19.3847 8.16875 19.9448C8.3776 20.1355 8.58444 20.3181 8.8213 20.522C9.05808 20.3181 9.26492 20.1355 9.4738 19.9457Z" fill="white"/>
</svg>
