<svg width="50" height="50" viewBox="0 0 50 50" fill="none" xmlns="http://www.w3.org/2000/svg">
<path d="M0.19043 0H44.0005C47.3142 0 50.0005 2.68629 50.0005 6V44C50.0005 47.3137 47.3142 50 44.0005 50H0.19043V0Z" fill="#F5C34B"/>
<path d="M22.2209 16.6094C18.1043 16.6094 14.751 19.9755 14.751 24.1078C14.751 28.24 18.1043 31.6127 22.2209 31.6127C23.9792 31.6127 25.5963 30.9941 26.8744 29.9671L29.9859 33.0889C30.1429 33.24 30.3526 33.3233 30.5701 33.3211C30.7876 33.3189 30.9956 33.2312 31.1495 33.0769C31.3034 32.9227 31.391 32.714 31.3935 32.4957C31.3961 32.2774 31.3133 32.0667 31.163 31.9089L28.0515 28.7856C29.0754 27.5006 29.6924 25.8748 29.6924 24.1078C29.6924 19.9755 26.3374 16.6094 22.2209 16.6094ZM22.2209 18.2761C25.4401 18.2761 28.0304 20.8762 28.0304 24.1078C28.0304 27.3393 25.4401 29.946 22.2209 29.946C19.0016 29.946 16.4113 27.3393 16.4113 24.1078C16.4113 20.8762 19.0016 18.2761 22.2209 18.2761Z" fill="#443297"/>
</svg>
